<svg width="3300" height="2200" viewBox="0 0 3300 2200" fill="none" xmlns="http://www.w3.org/2000/svg">
<g id="bookplayer.icon" clip-path="url(#clip0_9_2)">
<g id="Notes">
<path id="artboard" d="M3300 0H0V2200H3300V0Z" fill="white"/>
<path id="Vector" d="M263 292H3036" stroke="black" stroke-width="0.5"/>
<text id="Weight/Scale Variations" fill="black" xml:space="preserve" style="white-space: pre" font-family="Inter" font-size="13" font-weight="bold" letter-spacing="0em"><tspan x="263" y="321.727">Weight/Scale Variations</tspan></text>
<text id="Ultralight" fill="black" xml:space="preserve" style="white-space: pre" font-family="Inter" font-size="13" letter-spacing="0em"><tspan x="531.661" y="321.727">Ultralight</tspan></text>
<text id="Thin" fill="black" xml:space="preserve" style="white-space: pre" font-family="Inter" font-size="13" letter-spacing="0em"><tspan x="843.067" y="321.727">Thin</tspan></text>
<text id="Light" fill="black" xml:space="preserve" style="white-space: pre" font-family="Inter" font-size="13" letter-spacing="0em"><tspan x="1137.77" y="321.727">Light</tspan></text>
<text id="Regular" fill="black" xml:space="preserve" style="white-space: pre" font-family="Inter" font-size="13" letter-spacing="0em"><tspan x="1426.58" y="321.727">Regular</tspan></text>
<text id="Medium" fill="black" xml:space="preserve" style="white-space: pre" font-family="Inter" font-size="13" letter-spacing="0em"><tspan x="1721.99" y="321.727">Medium</tspan></text>
<text id="Semibold" fill="black" xml:space="preserve" style="white-space: pre" font-family="Inter" font-size="13" letter-spacing="0em"><tspan x="2014.65" y="321.727">Semibold</tspan></text>
<text id="Bold" fill="black" xml:space="preserve" style="white-space: pre" font-family="Inter" font-size="13" letter-spacing="0em"><tspan x="2326.29" y="321.727">Bold</tspan></text>
<text id="Heavy" fill="black" xml:space="preserve" style="white-space: pre" font-family="Inter" font-size="13" letter-spacing="0em"><tspan x="2617.32" y="321.727">Heavy</tspan></text>
<text id="Black" fill="black" xml:space="preserve" style="white-space: pre" font-family="Inter" font-size="13" letter-spacing="0em"><tspan x="2916.8" y="321.727">Black</tspan></text>
<path id="Vector_2" d="M263 1903H3036" stroke="black" stroke-width="0.5"/>
<g id="Group">
<path id="Vector_3" d="M272.248 1933.83C276.604 1933.83 280.139 1930.3 280.139 1925.95C280.139 1921.59 276.604 1918.07 272.248 1918.07C267.902 1918.07 264.367 1921.59 264.367 1925.95C264.367 1930.3 267.902 1933.83 272.248 1933.83ZM272.248 1932.35C268.713 1932.35 265.861 1929.48 265.861 1925.95C265.861 1922.41 268.713 1919.55 272.248 1919.55C275.783 1919.55 278.645 1922.41 278.645 1925.95C278.645 1929.48 275.783 1932.35 272.248 1932.35ZM268.654 1925.95C268.654 1926.38 268.957 1926.67 269.406 1926.67H271.506V1928.79C271.506 1929.23 271.799 1929.53 272.228 1929.53C272.678 1929.53 272.971 1929.23 272.971 1928.79V1926.67H275.09C275.529 1926.67 275.832 1926.38 275.832 1925.95C275.832 1925.51 275.529 1925.21 275.09 1925.21H272.971V1923.1C272.971 1922.65 272.678 1922.35 272.228 1922.35C271.799 1922.35 271.506 1922.65 271.506 1923.1V1925.21H269.406C268.957 1925.21 268.654 1925.51 268.654 1925.95Z" fill="black"/>
</g>
<g id="Group_2">
<path id="Vector_4" d="M293.215 1935.91C298.713 1935.91 303.176 1931.45 303.176 1925.95C303.176 1920.45 298.713 1915.99 293.215 1915.99C287.717 1915.99 283.254 1920.45 283.254 1925.95C283.254 1931.45 287.717 1935.91 293.215 1935.91ZM293.215 1934.25C288.625 1934.25 284.914 1930.54 284.914 1925.95C284.914 1921.36 288.625 1917.65 293.215 1917.65C297.805 1917.65 301.516 1921.36 301.516 1925.95C301.516 1930.54 297.805 1934.25 293.215 1934.25ZM288.684 1925.95C288.684 1926.43 289.016 1926.75 289.514 1926.75H292.385V1929.63C292.385 1930.12 292.717 1930.46 293.195 1930.46C293.684 1930.46 294.026 1930.13 294.026 1929.63V1926.75H296.906C297.395 1926.75 297.736 1926.43 297.736 1925.95C297.736 1925.46 297.395 1925.12 296.906 1925.12H294.026V1922.25C294.026 1921.75 293.684 1921.41 293.195 1921.41C292.717 1921.41 292.385 1921.75 292.385 1922.25V1925.12H289.514C289.016 1925.12 288.684 1925.46 288.684 1925.95Z" fill="black"/>
</g>
<g id="Group_3">
<path id="Vector_5" d="M319.895 1938.66C326.916 1938.66 332.619 1932.97 332.619 1925.95C332.619 1918.93 326.916 1913.22 319.895 1913.22C312.873 1913.22 307.18 1918.93 307.18 1925.95C307.18 1932.97 312.873 1938.66 319.895 1938.66ZM319.895 1936.85C313.869 1936.85 308.996 1931.97 308.996 1925.95C308.996 1919.92 313.869 1915.05 319.895 1915.05C325.92 1915.05 330.793 1919.92 330.793 1925.95C330.793 1931.97 325.92 1936.85 319.895 1936.85ZM314.123 1925.95C314.123 1926.47 314.494 1926.83 315.041 1926.83H318.987V1930.78C318.987 1931.32 319.358 1931.7 319.875 1931.7C320.412 1931.7 320.783 1931.33 320.783 1930.78V1926.83H324.739C325.276 1926.83 325.657 1926.47 325.657 1925.95C325.657 1925.4 325.285 1925.03 324.739 1925.03H320.783V1921.09C320.783 1920.54 320.412 1920.16 319.875 1920.16C319.358 1920.16 318.987 1920.54 318.987 1921.09V1925.03H315.041C314.494 1925.03 314.123 1925.4 314.123 1925.95Z" fill="black"/>
</g>
<text id="Design Variations" fill="black" xml:space="preserve" style="white-space: pre" font-family="Inter" font-size="13" font-weight="bold" letter-spacing="0em"><tspan x="263" y="1952.73">Design Variations</tspan></text>
<text id="Symbols are supported in up to nine weights and three scales." fill="black" xml:space="preserve" style="white-space: pre" font-family="Inter" font-size="13" letter-spacing="0em"><tspan x="263" y="1970.73">Symbols are supported in up to nine weights and three scales.</tspan></text>
<text id="For optimal layout with text and other symbols, vertically align" fill="black" xml:space="preserve" style="white-space: pre" font-family="Inter" font-size="13" letter-spacing="0em"><tspan x="263" y="1988.73">For optimal layout with text and other symbols, vertically align</tspan></text>
<text id="symbols with the adjacent text." fill="black" xml:space="preserve" style="white-space: pre" font-family="Inter" font-size="13" letter-spacing="0em"><tspan x="263" y="2006.73">symbols with the adjacent text.</tspan></text>
<path id="Vector_6" d="M776 1919V1933" stroke="#00AEEF" stroke-width="0.5"/>
<g id="Group_4">
<path id="Vector_7" d="M779.311 1933.16C779.828 1933.16 780.082 1932.96 780.268 1932.41L781.527 1928.97H787.289L788.549 1932.41C788.734 1932.96 788.988 1933.16 789.496 1933.16C790.014 1933.16 790.346 1932.84 790.346 1932.36C790.346 1932.19 790.316 1932.03 790.238 1931.83L785.658 1919.63C785.434 1919.04 785.033 1918.73 784.408 1918.73C783.803 1918.73 783.393 1919.03 783.178 1919.62L778.598 1931.84C778.52 1932.04 778.49 1932.2 778.49 1932.37C778.49 1932.85 778.803 1933.16 779.311 1933.16ZM782.006 1927.48L784.379 1920.91H784.428L786.801 1927.48H782.006Z" fill="black"/>
</g>
<path id="Vector_8" d="M792.836 1919V1933" stroke="#00AEEF" stroke-width="0.5"/>
<text id="Margins" fill="black" xml:space="preserve" style="white-space: pre" font-family="Inter" font-size="13" font-weight="bold" letter-spacing="0em"><tspan x="776" y="1952.73">Margins</tspan></text>
<text id="Leading and trailing margins on the left and right side of each symbol" fill="black" xml:space="preserve" style="white-space: pre" font-family="Inter" font-size="13" letter-spacing="0em"><tspan x="776" y="1970.73">Leading and trailing margins on the left and right side of each symbol</tspan></text>
<text id="can be adjusted by modifying the x-location of the margin guidelines." fill="black" xml:space="preserve" style="white-space: pre" font-family="Inter" font-size="13" letter-spacing="0em"><tspan x="776" y="1988.73">can be adjusted by modifying the x-location of the margin guidelines.</tspan></text>
<text id="Modifications are automatically applied proportionally to all" fill="black" xml:space="preserve" style="white-space: pre" font-family="Inter" font-size="13" letter-spacing="0em"><tspan x="776" y="2006.73">Modifications are automatically applied proportionally to all</tspan></text>
<text id="scales and weights." fill="black" xml:space="preserve" style="white-space: pre" font-family="Inter" font-size="13" letter-spacing="0em"><tspan x="776" y="2024.73">scales and weights.</tspan></text>
<g id="Group_5">
<path id="Vector_9" d="M1291.84 1934.87L1293.54 1936.57C1294.4 1937.44 1295.39 1937.38 1296.31 1936.36L1307.01 1924.57L1306.04 1923.6L1295.43 1935.28C1295.07 1935.68 1294.74 1935.77 1294.27 1935.3L1293.1 1934.14C1292.63 1933.68 1292.74 1933.34 1293.14 1932.98L1304.62 1922.18L1303.64 1921.21L1292.05 1932.1C1291.06 1933.02 1290.98 1934 1291.84 1934.87ZM1298.26 1916.67C1297.84 1917.08 1297.81 1917.66 1298.04 1918.05C1298.28 1918.41 1298.74 1918.64 1299.38 1918.48C1300.85 1918.14 1302.37 1918.08 1303.79 1919.02L1303.21 1920.47C1302.87 1921.3 1303.04 1921.89 1303.58 1922.43L1305.88 1924.75C1306.36 1925.24 1306.77 1925.26 1307.34 1925.16L1308.4 1924.96L1309.07 1925.64L1309.03 1926.19C1308.99 1926.69 1309.12 1927.07 1309.61 1927.55L1310.37 1928.29C1310.85 1928.77 1311.46 1928.8 1311.93 1928.33L1314.84 1925.41C1315.31 1924.94 1315.29 1924.35 1314.81 1923.87L1314.04 1923.11C1313.56 1922.63 1313.19 1922.47 1312.71 1922.51L1312.13 1922.56L1311.49 1921.93L1311.73 1920.8C1311.86 1920.24 1311.71 1919.8 1311.12 1919.21L1308.92 1917.02C1305.58 1913.7 1301.15 1913.78 1298.26 1916.67ZM1299.75 1917.04C1302.18 1915.27 1305.47 1915.57 1307.7 1917.79L1310.13 1920.21C1310.37 1920.44 1310.41 1920.63 1310.34 1920.97L1310.02 1922.45L1311.52 1923.94L1312.51 1923.88C1312.76 1923.87 1312.84 1923.89 1313.03 1924.08L1313.61 1924.66L1311.17 1927.1L1310.59 1926.53C1310.4 1926.33 1310.37 1926.25 1310.38 1925.99L1310.45 1925.01L1308.95 1923.53L1307.43 1923.78C1307.11 1923.85 1306.96 1923.82 1306.71 1923.59L1304.71 1921.58C1304.46 1921.35 1304.43 1921.18 1304.59 1920.81L1305.46 1918.72C1303.9 1917.27 1301.87 1916.64 1299.84 1917.24C1299.68 1917.28 1299.63 1917.15 1299.75 1917.04Z" fill="black"/>
</g>
<text id="Exporting" fill="black" xml:space="preserve" style="white-space: pre" font-family="Inter" font-size="13" font-weight="bold" letter-spacing="0em"><tspan x="1289" y="1952.73">Exporting</tspan></text>
<text id="Symbols should be outlined when exporting to ensure the" fill="black" xml:space="preserve" style="white-space: pre" font-family="Inter" font-size="13" letter-spacing="0em"><tspan x="1289" y="1970.73">Symbols should be outlined when exporting to ensure the</tspan></text>
<text id="design is preserved when submitting to Xcode." fill="black" xml:space="preserve" style="white-space: pre" font-family="Inter" font-size="13" letter-spacing="0em"><tspan x="1289" y="1988.73">design is preserved when submitting to Xcode.</tspan></text>
<text id="template-version" fill="black" xml:space="preserve" style="white-space: pre" font-family="Inter" font-size="13" letter-spacing="0em"><tspan x="2946.54" y="1932.73">Template v.6.0</tspan></text>
<text id="Requires Xcode 16 or greater" fill="black" xml:space="preserve" style="white-space: pre" font-family="Inter" font-size="13" letter-spacing="0em"><tspan x="2858.16" y="1950.73">Requires Xcode 16 or greater</tspan></text>
<text id="descriptive-name" fill="black" xml:space="preserve" style="white-space: pre" font-family="Inter" font-size="13" letter-spacing="0em"><tspan x="2774.12" y="1968.73">Generated from square.and.arrow.up.circle</tspan></text>
<text id="Typeset at 100.0 points" fill="black" xml:space="preserve" style="white-space: pre" font-family="Inter" font-size="13" letter-spacing="0em"><tspan x="2892.56" y="1986.73">Typeset at 100.0 points</tspan></text>
<text id="Small" fill="black" xml:space="preserve" style="white-space: pre" font-family="Inter" font-size="13" letter-spacing="0em"><tspan x="263" y="725.727">Small</tspan></text>
<text id="Medium_2" fill="black" xml:space="preserve" style="white-space: pre" font-family="Inter" font-size="13" letter-spacing="0em"><tspan x="263" y="1155.73">Medium</tspan></text>
<text id="Large" fill="black" xml:space="preserve" style="white-space: pre" font-family="Inter" font-size="13" letter-spacing="0em"><tspan x="263" y="1585.73">Large</tspan></text>
</g>
<g id="Guides">
<g id="H-reference">
<path id="Vector_10" d="M339.994 696H342.638L368.328 628.868H369.03V625.541H367.123L339.994 696ZM350.688 671.52H385.981L385.231 669.272H351.438L350.688 671.52ZM394.12 696H396.764L369.638 625.541H368.433V628.868L394.12 696Z" fill="#27AAE1"/>
</g>
<path id="Baseline-S" d="M263 696H3036" stroke="#27AAE1" stroke-width="0.5"/>
<path id="Capline-S" d="M263 625.541H3036" stroke="#27AAE1" stroke-width="0.5"/>
<g id="H-reference_2">
<path id="Vector_11" d="M339.994 1126H342.638L368.328 1058.87H369.03V1055.54H367.123L339.994 1126ZM350.688 1101.52H385.981L385.231 1099.27H351.438L350.688 1101.52ZM394.12 1126H396.764L369.638 1055.54H368.433V1058.87L394.12 1126Z" fill="#27AAE1"/>
</g>
<path id="Baseline-M" d="M263 1126H3036" stroke="#27AAE1" stroke-width="0.5"/>
<path id="Capline-M" d="M263 1055.54H3036" stroke="#27AAE1" stroke-width="0.5"/>
<g id="H-reference_3">
<path id="Vector_12" d="M339.994 1556H342.638L368.328 1488.87H369.03V1485.54H367.123L339.994 1556ZM350.688 1531.52H385.981L385.231 1529.27H351.438L350.688 1531.52ZM394.12 1556H396.764L369.638 1485.54H368.433V1488.87L394.12 1556Z" fill="#27AAE1"/>
</g>
<path id="Baseline-L" d="M263 1556H3036" stroke="#27AAE1" stroke-width="0.5"/>
<path id="Capline-L" d="M263 1485.54H3036" stroke="#27AAE1" stroke-width="0.5"/>
<path id="right-margin-Black-S" d="M2982.23 600.785V720.121" stroke="#00AEEF" stroke-width="0.5"/>
<path id="left-margin-Black-S" d="M2884.57 600.785V720.121" stroke="#00AEEF" stroke-width="0.5"/>
<path id="right-margin-Regular-S" d="M1496.11 600.785V720.121" stroke="#00AEEF" stroke-width="0.5"/>
<path id="left-margin-Regular-S" d="M1403.58 600.785V720.121" stroke="#00AEEF" stroke-width="0.5"/>
<path id="right-margin-Ultralight-S" d="M603.773 600.785V720.121" stroke="#00AEEF" stroke-width="0.5"/>
<path id="left-margin-Ultralight-S" d="M515.649 600.785V720.121" stroke="#00AEEF" stroke-width="0.5"/>
</g>
<g id="Symbols">
<g id="Black-S">
<path id="Subtract" fill-rule="evenodd" clip-rule="evenodd" d="M2932.29 631.393C2932.88 631.885 2933.07 632.084 2933.25 632.335C2933.35 632.472 2933.43 632.612 2933.5 632.76C2933.57 632.612 2933.65 632.472 2933.75 632.335C2933.93 632.084 2934.12 631.885 2934.71 631.393L2953.88 615.63C2954.28 615.302 2954.76 615.092 2955.27 615.024C2956.79 614.824 2958.17 615.889 2958.37 617.402C2959.72 627.564 2960.39 641.986 2960.39 660.668C2960.39 679.322 2959.72 693.788 2958.38 704.068C2958.31 704.599 2958.09 705.099 2957.74 705.506C2956.75 706.667 2955.01 706.805 2953.85 705.814L2934.67 689.447C2934.09 688.951 2933.9 688.753 2933.73 688.504C2933.64 688.375 2933.56 688.244 2933.5 688.107C2933.44 688.244 2933.36 688.375 2933.27 688.504C2933.1 688.753 2932.91 688.951 2932.33 689.447L2913.15 705.814C2911.99 706.805 2910.25 706.667 2909.26 705.506C2908.91 705.099 2908.69 704.599 2908.62 704.068C2907.28 693.788 2906.61 679.322 2906.61 660.668C2906.61 641.986 2907.28 627.564 2908.63 617.402C2908.83 615.889 2910.21 614.824 2911.73 615.024C2912.24 615.092 2912.72 615.302 2913.12 615.63L2932.29 631.393ZM2900.61 619.711L2905.9 621.754C2904.9 631.601 2904.41 644.567 2904.41 660.668C2904.41 676.716 2904.9 689.694 2905.89 699.616L2900.66 701.746C2899.24 702.321 2897.63 701.641 2897.05 700.227C2896.96 699.986 2896.89 699.731 2896.87 699.472C2895.99 691.089 2895.55 678.147 2895.55 660.646C2895.55 643.139 2895.99 630.257 2896.87 621.999C2897.03 620.48 2898.39 619.38 2899.91 619.541C2900.15 619.567 2900.39 619.624 2900.61 619.711ZM2961.11 699.616L2966.34 701.746C2967.76 702.321 2969.37 701.641 2969.95 700.227C2970.04 699.986 2970.11 699.731 2970.13 699.472C2971.01 691.089 2971.45 678.147 2971.45 660.646C2971.45 643.139 2971.01 630.257 2970.13 621.999C2969.97 620.48 2968.61 619.38 2967.09 619.541C2966.85 619.567 2966.61 619.624 2966.39 619.711L2961.1 621.754C2962.1 631.601 2962.59 644.567 2962.59 660.668C2962.59 676.716 2962.1 689.694 2961.11 699.616ZM2889.32 625.096L2894.3 625.968C2893.66 634.232 2893.35 645.785 2893.35 660.646C2893.35 675.536 2893.67 687.148 2894.3 695.504L2889.3 696.38C2887.8 696.644 2886.36 695.638 2886.1 694.134C2886.09 694.082 2886.08 694.03 2886.08 693.978C2885.36 687.823 2885 676.826 2885 660.987C2885 645.038 2885.36 633.877 2886.09 627.504C2886.27 625.988 2887.64 624.899 2889.15 625.072C2889.21 625.078 2889.26 625.086 2889.32 625.096ZM2972.7 695.504L2977.7 696.38C2979.2 696.644 2980.64 695.638 2980.9 694.134C2980.91 694.082 2980.92 694.03 2980.92 693.978C2981.64 687.823 2982 676.826 2982 660.987C2982 645.038 2981.64 633.877 2980.91 627.504C2980.73 625.988 2979.36 624.899 2977.85 625.072C2977.79 625.078 2977.74 625.086 2977.68 625.096L2972.7 625.968C2973.34 634.232 2973.65 645.785 2973.65 660.646C2973.65 675.536 2973.33 687.148 2972.7 695.504ZM2932.79 644.203L2922.46 653.954H2915.88C2915.11 653.954 2914.83 654.036 2914.55 654.189C2914.26 654.343 2914.04 654.567 2913.89 654.854C2913.74 655.141 2913.66 655.425 2913.66 656.209V665.269C2913.66 666.053 2913.74 666.338 2913.89 666.624C2914.04 666.911 2914.26 667.136 2914.55 667.289C2914.83 667.443 2915.11 667.524 2915.88 667.524H2922.46L2932.79 677.273C2933.11 677.576 2933.53 677.744 2933.97 677.744C2934.93 677.744 2935.7 676.957 2935.7 675.985V645.491C2935.7 645.046 2935.54 644.618 2935.24 644.292C2934.59 643.581 2933.49 643.541 2932.79 644.203ZM2940.42 651.895C2939.96 652.423 2940.03 653.216 2940.55 653.667C2942.49 655.325 2943.63 657.74 2943.63 660.342C2943.63 662.932 2942.51 665.336 2940.58 666.995C2940.05 667.447 2940 668.241 2940.45 668.767C2940.9 669.292 2941.69 669.352 2942.22 668.899C2944.69 666.768 2946.15 663.671 2946.15 660.342C2946.15 656.997 2944.68 653.887 2942.19 651.757C2941.66 651.306 2940.87 651.368 2940.42 651.895ZM2944.82 645.973C2944.37 646.502 2944.44 647.295 2944.97 647.744C2948.66 650.885 2950.83 655.474 2950.83 660.417C2950.83 665.345 2948.67 669.92 2945 673.061C2944.47 673.512 2944.41 674.305 2944.86 674.833C2945.31 675.36 2946.11 675.422 2946.63 674.972C2950.86 671.358 2953.34 666.088 2953.34 660.417C2953.34 654.729 2950.84 649.443 2946.59 645.83C2946.06 645.38 2945.27 645.444 2944.82 645.973Z" fill="#DADADA"/>
</g>
<g id="Regular-S">
<path id="Subtract_2" fill-rule="evenodd" clip-rule="evenodd" d="M1448.85 632.548C1449.42 633.014 1449.59 633.203 1449.77 633.442C1449.86 633.571 1449.94 633.704 1450 633.844C1450.06 633.704 1450.14 633.571 1450.23 633.442C1450.41 633.203 1450.58 633.014 1451.15 632.548L1469.33 617.597C1469.71 617.286 1470.16 617.087 1470.65 617.023C1472.09 616.833 1473.4 617.843 1473.59 619.279C1474.87 628.916 1475.5 642.595 1475.5 660.314C1475.5 678.006 1474.87 691.727 1473.6 701.477C1473.53 701.981 1473.32 702.454 1472.99 702.841C1472.05 703.942 1470.4 704.073 1469.3 703.133L1451.11 687.609C1450.55 687.139 1450.38 686.951 1450.22 686.715C1450.13 686.593 1450.06 686.469 1450 686.338C1449.94 686.469 1449.87 686.593 1449.78 686.715C1449.62 686.951 1449.44 687.139 1448.89 687.609L1430.7 703.133C1429.6 704.073 1427.95 703.942 1427.01 702.841C1426.68 702.454 1426.47 701.981 1426.4 701.477C1425.13 691.727 1424.5 678.006 1424.5 660.314C1424.5 642.595 1425.13 628.916 1426.41 619.279C1426.6 617.843 1427.91 616.833 1429.35 617.023C1429.84 617.087 1430.29 617.286 1430.67 617.597L1448.85 632.548ZM1418.81 621.468L1423.82 623.406C1422.88 632.745 1422.41 645.043 1422.41 660.314C1422.41 675.535 1422.87 687.843 1423.81 697.255L1418.85 699.274C1417.51 699.82 1415.98 699.175 1415.43 697.834C1415.34 697.605 1415.28 697.364 1415.25 697.118C1414.43 689.167 1414.01 676.892 1414.01 660.293C1414.01 643.689 1414.43 631.47 1415.26 623.638C1415.41 622.198 1416.7 621.154 1418.14 621.307C1418.37 621.331 1418.59 621.385 1418.81 621.468ZM1476.19 697.255L1481.15 699.274C1482.49 699.82 1484.02 699.175 1484.57 697.834C1484.66 697.605 1484.72 697.364 1484.75 697.118C1485.57 689.167 1485.99 676.892 1485.99 660.293C1485.99 643.689 1485.57 631.47 1484.74 623.638C1484.59 622.198 1483.3 621.154 1481.86 621.307C1481.63 621.331 1481.41 621.385 1481.19 621.468L1476.18 623.406C1477.12 632.745 1477.59 645.043 1477.59 660.314C1477.59 675.535 1477.13 687.843 1476.19 697.255ZM1408.09 626.575L1412.82 627.403C1412.22 635.241 1411.92 646.198 1411.92 660.293C1411.92 674.415 1412.22 685.429 1412.82 693.354L1408.08 694.185C1406.65 694.435 1405.29 693.482 1405.04 692.055C1405.04 692.006 1405.03 691.956 1405.02 691.907C1404.34 686.069 1404 675.639 1404 660.617C1404 645.489 1404.35 634.904 1405.04 628.86C1405.2 627.421 1406.5 626.388 1407.94 626.553C1407.99 626.559 1408.04 626.566 1408.09 626.575ZM1487.18 693.354L1491.92 694.185C1493.35 694.435 1494.71 693.482 1494.96 692.055C1494.96 692.006 1494.97 691.956 1494.98 691.907C1495.66 686.069 1496 675.639 1496 660.617C1496 645.489 1495.65 634.904 1494.96 628.86C1494.8 627.421 1493.5 626.388 1492.06 626.553C1492.01 626.559 1491.96 626.566 1491.91 626.575L1487.18 627.403C1487.78 635.241 1488.08 646.198 1488.08 660.293C1488.08 674.415 1487.78 685.429 1487.18 693.354ZM1449.33 644.698L1439.53 653.946H1433.29C1432.56 653.946 1432.29 654.024 1432.02 654.169C1431.75 654.315 1431.54 654.528 1431.4 654.8C1431.26 655.072 1431.18 655.341 1431.18 656.085V664.678C1431.18 665.422 1431.26 665.691 1431.4 665.963C1431.54 666.235 1431.75 666.449 1432.02 666.594C1432.29 666.739 1432.56 666.817 1433.29 666.817H1439.53L1449.33 676.063C1449.63 676.35 1450.03 676.51 1450.45 676.51C1451.35 676.51 1452.09 675.763 1452.09 674.842V645.919C1452.09 645.497 1451.93 645.091 1451.65 644.782C1451.03 644.108 1449.99 644.07 1449.33 644.698ZM1456.56 651.994C1456.13 652.494 1456.19 653.246 1456.69 653.674C1458.53 655.247 1459.61 657.537 1459.61 660.005C1459.61 662.461 1458.54 664.742 1456.71 666.314C1456.22 666.744 1456.16 667.496 1456.59 667.995C1457.02 668.494 1457.77 668.55 1458.27 668.12C1460.62 666.1 1461.99 663.163 1461.99 660.005C1461.99 656.832 1460.6 653.883 1458.24 651.862C1457.74 651.434 1456.99 651.493 1456.56 651.994ZM1460.74 646.376C1460.31 646.878 1460.37 647.63 1460.87 648.056C1464.38 651.036 1466.44 655.387 1466.44 660.076C1466.44 664.75 1464.39 669.089 1460.91 672.069C1460.41 672.496 1460.35 673.248 1460.78 673.749C1461.2 674.249 1461.96 674.308 1462.46 673.88C1466.47 670.453 1468.82 665.455 1468.82 660.076C1468.82 654.681 1466.45 649.668 1462.42 646.24C1461.92 645.814 1461.17 645.875 1460.74 646.376Z" fill="#DADADA"/>
</g>
<g id="Ultralight-S">
<path id="Subtract_3" fill-rule="evenodd" clip-rule="evenodd" d="M558.898 633.872C559.441 634.318 559.612 634.499 559.776 634.727C559.865 634.851 559.939 634.978 560 635.112C560.061 634.978 560.135 634.851 560.224 634.727C560.388 634.499 560.559 634.318 561.102 633.872L578.487 619.571C578.849 619.274 579.287 619.083 579.752 619.022C581.125 618.84 582.385 619.806 582.567 621.18C583.785 630.398 584.394 643.482 584.394 660.431C584.394 677.354 583.787 690.478 582.572 699.804C582.51 700.286 582.309 700.739 581.993 701.109C581.094 702.162 579.511 702.287 578.458 701.388L561.058 686.539C560.531 686.09 560.365 685.91 560.207 685.684C560.125 685.567 560.057 685.448 560 685.324C559.943 685.448 559.875 685.567 559.793 685.684C559.635 685.91 559.469 686.09 558.942 686.539L541.542 701.388C540.489 702.287 538.906 702.162 538.007 701.109C537.691 700.739 537.49 700.286 537.427 699.804C536.213 690.478 535.606 677.354 535.606 660.431C535.606 643.482 536.215 630.398 537.433 621.18C537.615 619.806 538.875 618.84 540.248 619.022C540.712 619.083 541.151 619.274 541.512 619.571L558.898 633.872ZM530.163 623.274L534.963 625.127C534.057 634.061 533.606 645.824 533.606 660.431C533.606 674.99 534.054 686.763 534.953 695.765L530.204 697.697C528.921 698.219 527.458 697.602 526.936 696.319C526.847 696.1 526.79 695.87 526.765 695.635C525.972 688.029 525.575 676.288 525.575 660.411C525.575 644.529 525.972 632.841 526.766 625.349C526.912 623.972 528.147 622.974 529.524 623.12C529.743 623.143 529.958 623.195 530.163 623.274ZM585.047 695.765L589.796 697.697C591.079 698.219 592.542 697.602 593.064 696.319C593.153 696.1 593.21 695.87 593.235 695.635C594.028 688.029 594.425 676.288 594.425 660.411C594.425 644.529 594.028 632.841 593.234 625.349C593.088 623.972 591.853 622.974 590.476 623.12C590.257 623.143 590.042 623.195 589.837 623.274L585.037 625.127C585.943 634.061 586.394 645.824 586.394 660.431C586.394 674.99 585.946 686.763 585.047 695.765ZM519.916 628.159L524.434 628.951C523.86 636.448 523.575 646.928 523.575 660.411C523.575 673.919 523.861 684.454 524.437 692.034L519.901 692.829C518.537 693.068 517.237 692.156 516.998 690.792C516.99 690.745 516.983 690.697 516.978 690.65C516.326 685.066 516 675.089 516 660.72C516 646.251 516.33 636.125 516.991 630.344C517.149 628.968 518.392 627.98 519.768 628.137C519.817 628.143 519.867 628.15 519.916 628.159ZM595.563 692.034L600.099 692.829C601.463 693.068 602.763 692.156 603.002 690.792C603.01 690.745 603.017 690.697 603.022 690.65C603.674 685.066 604 675.089 604 660.72C604 646.251 603.67 636.125 603.009 630.344C602.851 628.968 601.608 627.98 600.232 628.137C600.183 628.143 600.133 628.15 600.084 628.159L595.566 628.951C596.14 636.448 596.425 646.928 596.425 660.411C596.425 673.919 596.139 684.454 595.563 692.034ZM559.355 645.493L549.986 654.34H544.016C543.315 654.34 543.06 654.414 542.804 654.553C542.548 654.692 542.347 654.896 542.209 655.156C542.072 655.416 541.999 655.674 541.999 656.386V664.605C541.999 665.316 542.072 665.574 542.209 665.834C542.347 666.094 542.548 666.299 542.804 666.438C543.06 666.577 543.315 666.651 544.016 666.651H549.988L559.355 675.495C559.646 675.77 560.029 675.923 560.427 675.923C561.296 675.923 562 675.208 562 674.327V646.662C562 646.258 561.85 645.87 561.579 645.574C560.987 644.929 559.991 644.893 559.355 645.493ZM566.274 652.472C565.865 652.951 565.921 653.67 566.4 654.079C568.16 655.584 569.192 657.774 569.192 660.135C569.192 662.485 568.17 664.666 566.423 666.17C565.946 666.581 565.892 667.301 566.303 667.778C566.714 668.255 567.434 668.309 567.911 667.898C570.155 665.965 571.472 663.155 571.472 660.135C571.472 657.1 570.143 654.279 567.881 652.346C567.402 651.937 566.683 651.994 566.274 652.472ZM570.272 647.099C569.864 647.579 569.922 648.298 570.402 648.706C573.754 651.556 575.721 655.718 575.721 660.203C575.721 664.674 573.767 668.825 570.433 671.674C569.955 672.083 569.898 672.803 570.307 673.281C570.717 673.76 571.436 673.816 571.915 673.407C575.749 670.129 578.001 665.348 578.001 660.203C578.001 655.042 575.735 650.248 571.879 646.969C571.399 646.561 570.68 646.62 570.272 647.099Z" fill="#DADADA"/>
</g>
</g>
</g>
<defs>
<clipPath id="clip0_9_2">
<rect width="3300" height="2200" fill="white"/>
</clipPath>
</defs>
</svg>
