<?xml version="1.0" encoding="UTF-8" standalone="no"?>
<!DOCTYPE svg PUBLIC "-//W3C//DTD SVG 1.1//EN" "http://www.w3.org/Graphics/SVG/1.1/DTD/svg11.dtd">
<svg width="100%" height="100%" viewBox="0 0 1024 1024" version="1.1" xmlns="http://www.w3.org/2000/svg" xmlns:xlink="http://www.w3.org/1999/xlink" xml:space="preserve" xmlns:serif="http://www.serif.com/" style="fill-rule:evenodd;clip-rule:evenodd;stroke-linejoin:round;stroke-miterlimit:2;">
    <g transform="matrix(0.790619,0,0,0.910363,106.475,53.6273)">
        <path d="M512.921,738.149C512.611,740.193 511.24,749.244 505.026,762.752C504.087,764.793 497.659,778.765 488.62,785.548C446.003,817.526 318.204,902.058 306.623,910.034C287.625,923.117 262.945,914.391 257.87,900.991C234.186,838.461 216.329,713.743 215.657,709.277C213.16,692.677 201.071,612.321 201.086,499.954C201.105,361.873 217.88,277.711 220.194,263.588C220.568,261.308 236.843,157.068 257.802,101.889C262.903,88.461 287.855,79.594 306.587,92.627C314.344,98.02 444.122,186.972 488.581,221.299C497.76,228.387 504.074,242.145 505.014,244.194C505.866,246.049 511.279,257.844 512.921,268.461L512.921,738.149Z" style="fill:rgb(58,37,143);fill-opacity:0.8;"/>
    </g>
</svg>
