<?xml version="1.0" encoding="UTF-8" standalone="no"?>
<!DOCTYPE svg PUBLIC "-//W3C//DTD SVG 1.1//EN" "http://www.w3.org/Graphics/SVG/1.1/DTD/svg11.dtd">
<svg width="100%" height="100%" viewBox="0 0 1024 1024" version="1.1" xmlns="http://www.w3.org/2000/svg" xmlns:xlink="http://www.w3.org/1999/xlink" xml:space="preserve" xmlns:serif="http://www.serif.com/" style="fill-rule:evenodd;clip-rule:evenodd;stroke-linejoin:round;stroke-miterlimit:2;">
    <g transform="matrix(0.852896,0,0,0.90838,75.0272,51.0611)">
        <path d="M512.34,740.449C511.871,742.283 509.692,750.802 502.053,761.752C495.307,771.423 486.632,778.432 478.374,781.867C455.787,791.262 375.34,822.267 337.791,835.423C223.63,875.42 211.302,880.514 206.657,881.757C191.075,885.92 170.598,872.392 167.064,858.105C153.085,801.596 141.719,696.322 140.191,682.166C138.663,668.021 132.559,611.482 132.56,504.485C132.561,476.268 132.563,292.278 166.955,153.45C170.546,138.956 187.343,123.935 206.587,129.2C218.161,132.368 217.607,133.638 348.595,177.497C356.623,180.185 445.943,212.165 478.418,225.244C486.319,228.425 494.993,235.17 502.066,245.288C509.696,256.202 511.872,264.697 512.34,266.526L512.34,740.449Z" style="fill:rgb(41,54,148);fill-opacity:0.8;"/>
    </g>
</svg>
