<?xml version="1.0" encoding="UTF-8" standalone="no"?>
<!DOCTYPE svg PUBLIC "-//W3C//DTD SVG 1.1//EN" "http://www.w3.org/Graphics/SVG/1.1/DTD/svg11.dtd">
<svg width="100%" height="100%" viewBox="0 0 1024 1024" version="1.1" xmlns="http://www.w3.org/2000/svg" xmlns:xlink="http://www.w3.org/1999/xlink" xml:space="preserve" xmlns:serif="http://www.serif.com/" style="fill-rule:evenodd;clip-rule:evenodd;stroke-linejoin:round;stroke-miterlimit:2;">
    <g transform="matrix(-0.852896,0,0,0.90838,948.973,51.0611)">
        <path d="M512.34,740.449L512.34,266.526C511.872,264.697 509.696,256.202 502.066,245.288C494.993,235.17 486.319,228.425 478.418,225.244C445.943,212.165 356.623,180.185 348.595,177.497C217.607,133.638 218.161,132.368 206.587,129.2C187.343,123.935 170.546,138.956 166.955,153.45C132.563,292.278 132.561,476.268 132.56,504.485C132.559,611.482 138.663,668.021 140.191,682.166C141.719,696.322 153.085,801.596 167.064,858.105C170.598,872.392 191.075,885.92 206.657,881.757C211.302,880.514 223.63,875.42 337.791,835.423C375.34,822.267 455.787,791.262 478.374,781.867C486.632,778.432 495.307,771.423 502.053,761.752C509.692,750.802 511.871,742.283 512.34,740.449Z" style="fill:rgb(41,54,148);fill-opacity:0.8;"/>
    </g>
</svg>
