<?xml version="1.0" encoding="UTF-8" standalone="no"?>
<!DOCTYPE svg PUBLIC "-//W3C//DTD SVG 1.1//EN" "http://www.w3.org/Graphics/SVG/1.1/DTD/svg11.dtd">
<svg width="100%" height="100%" viewBox="0 0 1024 1024" version="1.1" xmlns="http://www.w3.org/2000/svg" xmlns:xlink="http://www.w3.org/1999/xlink" xml:space="preserve" xmlns:serif="http://www.serif.com/" style="fill-rule:evenodd;clip-rule:evenodd;stroke-linejoin:round;stroke-miterlimit:2;">
    <g transform="matrix(-0.790619,0,0,0.910363,917.525,53.6273)">
        <path d="M512.921,738.149L512.921,268.461C511.279,257.844 505.866,246.049 505.014,244.194C504.074,242.145 497.76,228.387 488.581,221.299C444.122,186.972 314.344,98.02 306.587,92.627C287.855,79.594 262.903,88.461 257.802,101.889C236.843,157.068 220.568,261.308 220.194,263.588C217.88,277.711 201.105,361.873 201.086,499.954C201.071,612.321 213.16,692.677 215.657,709.277C216.329,713.743 234.186,838.461 257.87,900.991C262.945,914.391 287.625,923.117 306.623,910.034C318.204,902.058 446.003,817.526 488.62,785.548C497.659,778.765 504.087,764.793 505.026,762.752C511.24,749.244 512.611,740.193 512.921,738.149Z" style="fill:rgb(58,37,143);fill-opacity:0.8;"/>
    </g>
</svg>
