<?xml version="1.0" encoding="UTF-8" standalone="no"?>
<!DOCTYPE svg PUBLIC "-//W3C//DTD SVG 1.1//EN" "http://www.w3.org/Graphics/SVG/1.1/DTD/svg11.dtd">
<svg width="100%" height="100%" viewBox="0 0 1024 1024" version="1.1" xmlns="http://www.w3.org/2000/svg" xmlns:xlink="http://www.w3.org/1999/xlink" xml:space="preserve" xmlns:serif="http://www.serif.com/" style="fill-rule:evenodd;clip-rule:evenodd;stroke-linejoin:round;stroke-miterlimit:2;">
    <g transform="matrix(0.871569,0,0,0.891458,65.4623,61.4559)">
        <path d="M512.338,739.739C511.773,741.648 509.096,750.7 499.037,760.774C491.601,768.22 479.565,775.122 468.089,777.318C303.903,808.725 107.825,827.032 105.4,826.388C95.724,823.818 87.958,809.154 86.726,797.286C83.704,768.182 67.558,678.812 67.553,502.463C67.548,326.517 83.619,239.274 86.701,209.708C87.938,197.847 95.676,183.228 105.353,180.648C115.855,177.848 122.305,179.69 256.537,197.499C263.036,198.362 393.896,213.56 468.08,229.671C479.632,232.179 491.694,238.869 499.035,246.223C509.096,256.301 511.773,265.357 512.338,267.267L512.338,739.739Z" style="fill:rgb(52,136,209);fill-opacity:0.8;"/>
    </g>
</svg>
