<?xml version="1.0" encoding="UTF-8" standalone="no"?>
<!DOCTYPE svg PUBLIC "-//W3C//DTD SVG 1.1//EN" "http://www.w3.org/Graphics/SVG/1.1/DTD/svg11.dtd">
<svg width="100%" height="100%" viewBox="0 0 1024 1024" version="1.1" xmlns="http://www.w3.org/2000/svg" xmlns:xlink="http://www.w3.org/1999/xlink" xml:space="preserve" xmlns:serif="http://www.serif.com/" style="fill-rule:evenodd;clip-rule:evenodd;stroke-linejoin:round;stroke-miterlimit:2;">
    <g transform="matrix(1.1125,0,0,1.00935,-60.3,-5.28972)">
        <path d="M429.051,566L397.573,566C385.659,566 376,555.354 376,542.222L376,482.778C376,469.646 385.659,459 397.573,459L429.047,459L505.554,384.582C510.051,380.209 516.456,379.145 521.923,381.863C527.39,384.582 530.904,390.58 530.904,397.19L530.904,482.778L530.904,542.222L530.904,627.805C530.904,634.416 527.39,640.414 521.923,643.133C516.456,645.851 510.051,644.787 505.554,640.414L429.051,566Z" style="fill:white;"/>
    </g>
    <g transform="matrix(1.20513,0,0,1.20513,-116.296,-96.5897)">
        <path d="M569.976,457.464C566.852,454.114 567.035,448.858 570.386,445.734C573.736,442.61 578.992,442.793 582.116,446.144C597.015,462.121 605.3,483.154 605.3,505C605.3,526.846 597.015,547.879 582.116,563.856C578.992,567.207 573.736,567.39 570.386,564.266C567.035,561.142 566.852,555.886 569.976,552.536C582.009,539.631 588.7,522.644 588.7,505C588.7,487.356 582.009,470.369 569.976,457.464Z" style="fill:rgb(255,255,254);"/>
    </g>
    <g transform="matrix(1.8141,0,0,1.8141,-432.354,-404.122)">
        <path d="M565.595,449.47C563.266,447.515 562.961,444.037 564.916,441.707C566.871,439.378 570.349,439.073 572.679,441.028C591.589,456.895 602.51,480.315 602.51,505C602.51,529.685 591.589,553.105 572.679,568.972C570.349,570.927 566.871,570.622 564.916,568.293C562.961,565.963 563.266,562.485 565.595,560.53C582.011,546.757 591.49,526.427 591.49,505C591.49,483.573 582.011,463.243 565.595,449.47Z" style="fill:rgb(255,255,254);"/>
    </g>
</svg>
